<svg xmlns="http://www.w3.org/2000/svg" viewBox="0 0 613.5 378"><defs><style>.cls-1{fill:#00a680;}</style></defs><g id="Layer_2" data-name="Layer 2"><g id="Layer_1-2" data-name="Layer 1"><path class="cls-1" d="M587.5,231.75H25.5C11.42,231.75,0,213.5,0,191H0c0-22.51,11.42-40.76,25.5-40.76h562c14.08,0,25.5,18.25,25.5,40.76h0C613,213.5,601.58,231.75,587.5,231.75Z"/><path class="cls-1" d="M587.5,81.51H25.5C11.42,81.51,0,63.26,0,40.76H0C0,18.25,11.42,0,25.5,0h562C601.58,0,613,18.25,613,40.76h0C613,63.26,601.58,81.51,587.5,81.51Z"/><path class="cls-1" d="M588,378H26C11.92,378,.5,359.75.5,337.24h0c0-22.5,11.42-40.75,25.5-40.75H588c14.08,0,25.5,18.25,25.5,40.75h0C613.5,359.75,602.08,378,588,378Z"/></g></g></svg>