<?xml version="1.0" encoding="utf-8"?>
<!-- Generator: Adobe Illustrator 24.1.0, SVG Export Plug-In . SVG Version: 6.00 Build 0)  -->
<svg version="1.1" id="Layer_1" xmlns="http://www.w3.org/2000/svg" xmlns:xlink="http://www.w3.org/1999/xlink" x="0px" y="0px"
	 viewBox="0 0 1125 2436" style="enable-background:new 0 0 1125 2436;" xml:space="preserve">
<style type="text/css">
	.st0{fill:#00A680;}
</style>
<path class="st0" d="M796.5,569.8h-562c-14.1,0-25.5-18.3-25.5-40.8l0,0c0-22.5,11.4-40.8,25.5-40.8h562c14.1,0,25.5,18.3,25.5,40.8
	l0,0C822,551.5,810.6,569.8,796.5,569.8z"/>
<path class="st0" d="M796.5,419.5h-562c-14.1,0-25.5-18.3-25.5-40.8l0,0c0-22.5,11.4-40.8,25.5-40.8h562c14.1,0,25.5,18.3,25.5,40.8
	l0,0C822,401.3,810.6,419.5,796.5,419.5z"/>
<path class="st0" d="M797,716H235c-14.1,0-25.5-18.3-25.5-40.8l0,0c0-22.5,11.4-40.8,25.5-40.8h562c14.1,0,25.5,18.3,25.5,40.8l0,0
	C822.5,697.7,811.1,716,797,716z"/>
</svg>
